<svg xmlns="http://www.w3.org/2000/svg" viewBox="0 0 32 32"><rect width="32" height="32" fill="#0b0b0b"/><g fill="#fff"><rect x="2.0" y="2.0" width="2.5" height="2.5"/><rect x="5.5" y="2.0" width="2.5" height="2.5"/><rect x="9.0" y="2.0" width="2.5" height="2.5"/><rect x="16.0" y="2.0" width="2.5" height="2.5"/><rect x="23.0" y="2.0" width="2.5" height="2.5"/><rect x="2.0" y="5.5" width="2.5" height="2.5"/><rect x="5.5" y="5.5" width="2.5" height="2.5"/><rect x="12.5" y="5.5" width="2.5" height="2.5"/><rect x="19.5" y="5.5" width="2.5" height="2.5"/><rect x="2.0" y="9.0" width="2.5" height="2.5"/><rect x="9.0" y="9.0" width="2.5" height="2.5"/><rect x="16.0" y="9.0" width="2.5" height="2.5"/><rect x="23.0" y="9.0" width="2.5" height="2.5"/><rect x="5.5" y="12.5" width="2.5" height="2.5"/><rect x="12.5" y="12.5" width="2.5" height="2.5"/><rect x="2.0" y="16.0" width="2.5" height="2.5"/><rect x="9.0" y="16.0" width="2.5" height="2.5"/><rect x="16.0" y="16.0" width="2.5" height="2.5"/><rect x="5.5" y="19.5" width="2.5" height="2.5"/><rect x="9.0" y="23.0" width="2.5" height="2.5"/></g></svg>
