<svg viewBox="0 0 215.553 215.553" width="215.553" height="215.553" xmlns="http://www.w3.org/2000/svg"><g transform="matrix(1 0 0 1 -33.059 0.00001)"><g transform="matrix(0.5 0 0 0.5 0 0)"><g transform="matrix(1 0 0 1 -48.12938 0)"><path fill="#617070" stroke="none" d="M 329.875 0 C 274.354 0 127.35 30.996 127.35 161.448 C 127.35 280.916 263.821 431.08 329.875 431.08 C 395.929 431.08 532.4 280.766 532.4 161.448 C 532.55 30.845 385.396 0 329.875 0 Z"/><path fill="#2194cd" stroke="none" d="M 329.875 0 C 307.757 0 271.194 4.965 235.083 19.109 C 218.532 25.579 202.282 34.005 187.386 44.688 C 190.395 60.788 194.909 76.135 200.928 90.88 C 214.169 85.162 228.012 80.498 242.155 77.037 C 261.414 72.373 281.577 69.815 302.341 69.815 C 370.802 69.815 432.944 96.748 478.835 140.533 L 478.835 140.533 L 482.446 144.144 L 484.252 145.95 C 485.004 146.702 485.606 147.304 486.358 148.057 C 486.96 148.659 487.562 149.411 488.164 150.013 C 488.766 150.765 489.518 151.367 490.12 152.119 C 490.722 152.721 491.324 153.473 491.926 154.075 C 492.528 154.827 493.28 155.58 493.882 156.332 C 494.484 156.934 495.086 157.536 495.537 158.288 C 496.59 159.642 497.794 160.846 498.847 162.2 C 499.449 162.952 499.9 163.554 500.502 164.306 C 501.104 165.058 501.706 165.811 502.308 166.563 C 502.91 167.315 503.512 168.068 504.114 168.82 C 504.716 169.572 505.167 170.325 505.769 171.077 C 506.371 171.829 506.973 172.582 507.424 173.334 C 508.026 174.086 508.477 174.839 509.079 175.591 C 509.681 176.343 510.132 177.096 510.734 177.848 C 511.486 178.901 512.239 179.954 512.991 181.008 C 513.743 182.061 514.496 183.265 515.248 184.318 C 515.699 185.07 516.151 185.823 516.753 186.575 C 517.355 187.478 517.806 188.23 518.408 189.133 C 518.859 189.885 519.561 190.643 520.012 191.395 C 520.614 192.298 520.815 192.894 521.417 193.797 L 521.417 193.797 C 521.868 194.549 522.226 195.26 522.621 196.051 C 523.122 196.915 523.674 197.709 524.276 198.611 C 524.577 199.213 525.028 199.815 525.329 200.417 C 525.931 201.47 526.533 202.674 527.135 203.727 C 528.339 198.762 529.242 193.646 530.144 188.681 C 531.649 179.352 532.401 170.174 532.401 161.146 C 532.55 30.845 385.396 0 329.875 0 Z"/><path fill="#774b29" stroke="none" d="M 238.092 123.982 C 244.111 120.22 250.43 116.91 256.75 113.75 C 250.731 102.164 245.766 89.826 242.155 77.037 C 227.861 80.498 214.169 85.162 200.928 90.88 C 204.238 98.855 208 106.679 212.062 114.352 C 221.09 116.911 229.816 120.07 238.092 123.982 Z"/><path fill="#765533" stroke="none" d="M 346.878 93.288 C 396.983 93.288 443.025 111.043 478.985 140.684 C 433.093 96.899 370.952 69.966 302.491 69.966 C 281.727 69.966 261.565 72.524 242.305 77.188 C 245.916 89.977 250.881 102.315 256.9 113.901 C 284.134 100.66 314.678 93.288 346.878 93.288 Z"/><path fill="#b1665c" stroke="none" d="M 256.9 113.751 C 250.43 116.911 244.261 120.221 238.242 123.983 C 258.103 133.161 276.159 145.65 291.506 160.847 C 277.664 147.154 265.928 131.205 256.9 113.751 Z"/><path fill="#b96753" stroke="none" d="M 525.478 200.569 C 525.177 199.967 524.876 199.365 524.425 198.763 C 523.974 197.86 523.372 196.957 522.77 196.055 C 522.319 195.303 522.018 194.701 521.566 193.949 L 521.566 193.949 C 521.115 193.046 520.513 192.143 519.911 191.391 C 519.46 190.639 519.008 190.037 518.557 189.285 C 517.955 188.382 517.504 187.63 516.902 186.727 C 516.451 185.975 515.999 185.222 515.397 184.47 C 514.645 183.417 513.892 182.213 513.14 181.16 C 512.388 180.107 511.635 179.054 510.883 178 C 510.281 177.248 509.83 176.495 509.228 175.743 C 508.626 174.991 508.175 174.238 507.573 173.486 C 506.971 172.734 506.369 171.981 505.918 171.229 C 505.316 170.477 504.865 169.724 504.263 168.972 C 503.661 168.22 503.059 167.467 502.457 166.715 C 501.855 165.963 501.253 165.21 500.651 164.458 C 500.049 163.706 499.598 163.104 498.996 162.352 C 497.943 160.998 496.739 159.794 495.686 158.44 C 495.084 157.838 494.633 157.086 494.031 156.484 C 493.429 155.732 492.677 154.979 492.075 154.227 C 491.473 153.625 490.871 152.873 490.269 152.271 C 489.667 151.519 488.915 150.917 488.313 150.164 C 487.711 149.562 487.109 148.81 486.507 148.208 C 485.755 147.456 485.153 146.703 484.401 146.102 L 482.595 144.296 L 478.984 140.685 C 443.023 111.044 396.981 93.289 346.877 93.289 C 314.678 93.289 284.134 100.662 256.899 113.752 C 266.077 131.206 277.663 147.155 291.506 160.847 L 292.559 161.9 C 309.11 178.451 322.501 198.162 331.981 219.829 C 341.912 242.7 347.328 267.827 347.328 294.158 C 347.328 329.668 337.548 362.77 320.395 391.057 C 316.032 402.944 310.423 414.447 303.953 425.13 C 313.392 429.108 322.241 431.107 330.065 431.107 C 387.542 431.107 497.942 317.781 526.079 209.748 C 526.53 207.792 527.132 205.836 527.584 203.729 C 526.682 202.826 526.08 201.772 525.478 200.569 Z"/><path fill="#98721e" stroke="none" d="M 212.212 114.202 C 215.823 120.822 219.735 127.292 223.948 133.461 C 228.612 130.151 233.277 126.841 238.092 123.831 C 229.816 120.07 221.09 116.911 212.212 114.202 Z"/><path fill="#cb873d" stroke="none" d="M 331.982 325.153 C 331.982 348.324 327.919 370.593 320.246 391.207 C 337.399 362.92 347.179 329.818 347.179 294.308 C 347.179 267.826 341.762 242.699 331.832 219.979 C 307.607 210.349 285.188 196.808 265.778 180.256 C 306.252 215.465 331.982 267.375 331.982 325.153 Z"/><path fill="#c58846" stroke="none" d="M 291.356 160.997 C 276.009 145.8 257.953 133.312 238.092 124.133 C 233.277 127.142 228.462 130.302 223.948 133.763 C 235.383 150.615 248.925 165.812 264.272 179.203 C 264.723 179.654 265.175 179.955 265.777 180.407 C 285.337 197.109 307.606 210.65 331.831 220.13 C 322.352 198.313 308.96 178.752 292.409 162.201 C 292.109 161.598 291.808 161.297 291.356 160.997 Z"/><path fill="#65c32f" stroke="none" d="M 265.777 180.256 C 265.326 179.805 264.874 179.504 264.272 179.052 C 247.871 165.059 229.063 153.774 208.6 145.95 C 187.234 137.825 164.063 133.311 139.838 133.311 C 137.882 133.311 135.926 133.311 133.97 133.461 C 132.465 133.461 131.111 133.611 129.607 133.611 C 129.306 135.116 129.156 136.47 128.855 137.974 C 127.802 145.347 127.2 153.171 127.2 161.446 C 127.2 188.83 134.422 217.72 146.158 246.157 C 178.658 323.646 245.615 396.922 297.073 422.05 C 299.33 423.254 301.737 424.208 303.994 425.11 C 310.464 414.427 316.031 403.091 320.244 391.205 C 327.767 370.591 331.98 348.323 331.98 325.151 C 331.982 267.375 306.252 215.465 265.777 180.256 Z"/><path fill="#b1665c" stroke="none" d="M 525.478 200.569 C 525.177 199.967 524.876 199.365 524.425 198.763 C 523.974 197.86 523.372 196.957 522.77 196.055 C 522.319 195.303 522.018 194.701 521.566 193.949 L 521.566 193.949 C 493.881 209.146 462.133 217.873 428.429 217.873 C 375.466 217.873 327.468 196.507 292.56 162.051 C 309.111 178.602 322.502 198.313 331.982 219.98 C 358.614 230.512 387.503 236.23 417.897 236.23 C 456.867 236.23 493.58 226.751 525.93 209.899 C 526.49 207.943 527.003 206.021 527.537 203.928 C 526.784 202.874 526.08 201.772 525.478 200.569 Z"/><path fill="#b06e64" stroke="none" d="M 518.708 189.284 C 518.106 188.381 517.655 187.629 517.053 186.726 C 516.602 185.974 516.15 185.221 515.548 184.469 C 514.796 183.416 514.043 182.212 513.291 181.159 C 512.539 180.106 511.786 179.053 511.034 177.999 C 510.432 177.247 509.981 176.494 509.379 175.742 C 508.777 174.99 508.326 174.237 507.724 173.485 C 507.122 172.733 506.52 171.98 506.069 171.228 C 505.467 170.476 505.016 169.723 504.414 168.971 C 503.812 168.219 503.21 167.466 502.608 166.714 C 502.006 165.962 501.404 165.209 500.802 164.457 C 500.2 163.705 499.749 163.103 499.147 162.35 C 498.094 160.996 496.89 159.792 495.837 158.438 C 495.235 157.836 494.784 157.084 494.182 156.482 C 493.58 155.73 492.828 154.977 492.226 154.225 C 491.624 153.623 491.022 152.871 490.42 152.269 C 489.818 151.517 489.066 150.915 488.464 150.163 C 487.862 149.561 487.26 148.809 486.658 148.207 C 485.906 147.455 485.304 146.702 484.551 146.1 L 482.745 144.294 L 479.134 140.683 C 443.173 111.042 397.131 93.287 347.027 93.287 C 314.828 93.287 284.284 100.66 257.049 113.75 C 266.227 131.204 277.813 147.153 291.656 160.845 L 292.709 161.898 C 327.617 196.354 375.615 217.72 428.578 217.72 C 462.432 217.72 494.016 209.141 521.551 193.944 C 521.1 193.041 520.678 192.388 520.185 191.581 C 519.735 190.981 519.159 189.886 518.708 189.284 Z"/><path fill="#2169a5" stroke="none" d="M 242.305 77.038 C 237.641 60.336 235.083 42.732 235.083 24.526 C 235.083 22.72 235.083 20.915 235.233 19.109 C 218.682 25.579 202.214 34.059 187.318 44.742 C 190.327 60.842 194.912 76.158 200.931 90.903 C 214.021 85.186 228.011 80.498 242.305 77.038 Z"/><path fill="#2169a5" stroke="none" d="M 521.564 193.95 C 521.968 194.702 522.251 195.222 522.793 196.179 C 523.349 197.131 523.844 197.936 524.396 198.889 C 524.923 199.809 525.343 200.483 525.999 201.592 C 526.628 202.569 526.782 202.78 527.542 203.934 C 528.746 198.969 529.593 193.645 530.217 188.401 C 527.358 190.207 524.574 192.295 521.564 193.95 Z"/><path fill="#5cb23f" stroke="none" d="M 297.074 422.052 C 299.547 423.294 301.466 424.132 304.015 425.161 C 310.485 414.478 316.032 403.093 320.245 391.207 C 313.625 402.341 305.801 412.572 297.074 422.052 Z"/><path fill="#44c741" stroke="none" d="M 129.758 133.462 C 129.457 134.967 129.307 136.321 129.006 137.825 C 130.661 136.32 132.253 135.058 134.059 133.553 C 132.554 133.553 131.112 133.462 129.758 133.462 Z"/><path fill="#52b810" stroke="none" d="M 146.309 246.159 C 157.142 206.888 179.11 172.281 208.601 145.95 C 187.235 137.825 164.064 133.311 139.839 133.311 C 137.883 133.311 135.927 133.311 133.971 133.461 C 132.316 134.966 130.661 136.47 128.855 137.975 C 127.802 145.348 127.2 153.172 127.2 161.447 C 127.35 188.682 134.422 217.721 146.309 246.159 Z"/><path fill="#864b1c" stroke="none" d="M 200.927 90.88 C 190.094 95.544 179.829 100.961 169.747 107.13 C 184.342 107.882 198.519 110.44 212.061 114.352 C 207.999 106.679 204.238 98.855 200.927 90.88 Z"/><path fill="#898f54" stroke="none" d="M 134.121 133.468 C 145.255 123.688 157.152 114.952 169.791 107.128 C 166.481 106.978 162.86 106.679 159.55 106.679 C 151.876 106.679 144.453 107.114 136.929 108.017 C 133.836 115.741 131.256 124.757 129.601 133.634 C 131.51 133.572 132.49 133.525 134.121 133.468 Z"/><path fill="#a47215" stroke="none" d="M 208.601 145.95 C 213.566 141.587 218.532 137.524 223.948 133.612 C 219.735 127.443 215.823 120.973 212.212 114.353 C 198.67 110.441 184.376 107.883 169.781 107.131 C 157.142 114.805 145.093 123.689 133.959 133.469 C 135.915 133.469 138.033 133.312 139.989 133.312 C 164.214 133.311 187.386 137.675 208.601 145.95 Z"/><path fill="#cb873d" stroke="none" d="M 223.948 133.612 C 218.682 137.524 213.566 141.587 208.601 145.95 C 229.064 153.774 247.872 165.059 264.273 179.052 C 248.925 165.661 235.384 150.464 223.948 133.612 Z"/><path fill="#ffffff" stroke="none" d="M 293.463 162.953 C 293.463 162.953 293.312 162.802 293.463 162.953 C 292.41 161.9 291.507 160.997 290.755 160.245 L 290.605 160.095 C 277.214 146.553 265.778 130.905 256.901 113.752 C 284.135 100.662 314.679 93.289 346.879 93.289 C 397.134 93.289 443.026 111.044 478.986 140.685 C 433.094 96.749 370.953 69.816 302.492 69.816 C 281.728 69.816 261.566 72.223 242.156 77.038 C 227.862 80.499 214.17 85.163 200.929 90.881 C 204.239 98.856 208.001 106.68 212.063 114.353 C 215.674 120.973 219.586 127.443 223.799 133.612 C 235.084 150.314 248.626 165.36 263.672 178.601 C 263.822 178.751 264.123 179.052 264.274 179.203 C 265.026 179.805 265.628 180.407 266.381 181.009 C 266.381 181.009 266.381 181.009 266.531 181.159 C 306.554 216.368 331.832 267.977 331.832 325.454 C 331.832 348.625 327.769 370.894 320.246 391.508 C 337.399 363.221 347.179 330.119 347.179 294.609 C 347.179 268.127 341.762 243 331.832 220.28 C 322.653 198.613 309.562 179.353 293.463 162.953 Z"/></g></g></g></svg>
